<svg xmlns="http://www.w3.org/2000/svg" viewBox="0 0 266.47 305.83"><defs><style>.cls-1{fill:#9700e8;}.cls-1,.cls-2,.cls-3{stroke:#000;stroke-linejoin:round;stroke-width:12px;}.cls-2{fill:none;}.cls-3{fill:#ccc;}.cls-4{fill:#fff;}</style></defs><title>summitSVG</title><g id="Layer_2" data-name="Layer 2"><g id="Layer_1-2" data-name="Layer 1"><polygon class="cls-1" points="215.66 252.24 133.24 299.83 50.82 252.24 215.66 252.24"/><polygon class="cls-1" points="260.47 79.46 260.47 226.37 259.17 227.12 220.6 160.29 208.97 140.16 203.47 130.62 184.16 97.2 159.68 54.79 155.96 48.34 133.24 9 96.12 73.31 82.63 96.67 80.91 99.64 65.21 126.84 48 156.62 7.3 227.12 6 226.37 6 79.46 133.24 6 260.47 79.46"/><polygon class="cls-2" points="259.17 227.12 215.66 252.24 50.82 252.24 7.3 227.12 48 156.62 65.21 126.84 80.91 99.64 82.63 96.67 96.12 73.31 133.24 9 155.96 48.34 159.68 54.79 184.16 97.2 203.47 130.62 208.97 140.16 220.6 160.29 259.17 227.12"/><polygon class="cls-3" points="259.17 227.12 215.66 252.24 50.82 252.24 7.3 227.12 48 156.62 65.21 126.84 80.91 99.64 82.63 96.67 96.12 73.31 133.24 9 155.96 48.34 159.68 54.79 184.16 97.2 203.47 130.62 208.97 140.16 220.6 160.29 259.17 227.12"/><polygon class="cls-4" points="178.38 99.19 160.24 130.62 138.53 93.02 123.76 118.6 100.32 78.01 133.24 21 153.37 55.88 156.68 61.59 178.38 99.19"/><polygon class="cls-3" points="172.45 252.24 50.82 252.24 7.3 227.12 48 156.62 65.21 126.84 80.91 99.64 82.63 96.67 84.35 99.64 93.12 114.83 115.6 153.77 152.85 218.29 172.45 252.24"/><polygon class="cls-4" points="113.89 162.82 97.37 191.44 76.06 154.51 59.75 182.75 49.8 165.52 66.11 137.29 81 111.5 82.63 108.67 84.26 111.5 92.58 125.9 113.89 162.82"/><polygon class="cls-3" points="259.17 227.12 215.66 252.24 133.24 252.24 152.85 218.29 166.95 193.87 181.98 167.82 203.47 130.62 208.97 140.16 220.6 160.29 259.17 227.12"/><polygon class="cls-4" points="176.73 188.94 187.47 207.56 200.34 185.29 209.08 200.44 222.97 176.4 203.47 142.62 191.54 163.28 189.58 166.67 176.73 188.94"/></g></g></svg>